<?xml version="1.0" encoding="UTF-8"?><svg xmlns="http://www.w3.org/2000/svg" viewBox="0 0 700 500"><rect width="700" height="500" rx="28" fill="#f3f0e8"/><ellipse cx="350" cy="445" rx="195" ry="23" fill="#d8d2c5"/><g transform="translate(180 45)"><path d="M105 18 Q170 -8 235 18 L305 80 270 145 235 122 235 245 105 245 105 122 70 145 35 80Z" fill="#f7f5ef" stroke="#183d67" stroke-width="4"/><path d="M138 25 Q170 64 202 25" fill="none" stroke="#183d67" stroke-width="5"/><path d="M115 105 Q170 70 225 105" fill="none" stroke="#dc982a" stroke-width="4"/><path d="M105 245 L68 388 L170 420 L202 265 L235 245 L272 388 L170 420" fill="#173a61" stroke="#07182f" stroke-width="4"/><path d="M84 388 L170 420 L256 388" fill="none" stroke="#dc982a" stroke-width="5"/><path d="M65 420 H130 M210 420 H275" stroke="#07182f" stroke-width="22" stroke-linecap="round"/><circle cx="170" cy="150" r="28" fill="none" stroke="#dc982a" stroke-width="2" stroke-dasharray="4 5"/></g></svg>